<?xml version="1.0" encoding="UTF-8"?>
<svg width="1345px" height="296px" viewBox="0 0 1345 296" version="1.1" xmlns="http://www.w3.org/2000/svg" xmlns:xlink="http://www.w3.org/1999/xlink">
    <g stroke="none" stroke-width="1" fill="none" fill-rule="evenodd">
        <g id="logo-full">
            <g transform="translate(289.000000, 69.000000)" fill="#FFFFFF" fill-rule="nonzero">
                <path d="M146,0 L96.6,160 L142.9,160 L147.8,141 L196,141 L201.1,160 L247.4,160 L198,0 L146,0 Z M162.7,96.2 L172,59.3 L181,96.2 L162.7,96.2 Z"/>
                <polygon points="301.1 79.2 280.8 0 230.1 0 272.9 158.5 329.4 158.5 372.1 0 321.4 0"/>
                <path d="M403.1,0 L353.7,160 L400,160 L404.9,141 L453.2,141 L458.3,160 L504.6,160 L455.1,0 L403.1,0 Z M419.8,96.2 L429.1,59.3 L438.1,96.2 L419.8,96.2 Z"/>
                <path d="M34.9,0 L34.9,41.3 L48.8,41.3 L48.8,94.6 C48.8,97.2 48.3,99.7 47.3,101.9 C46.3,104.2 44.9,106.2 43.2,107.9 C41.5,109.7 39.5,111 37.1,112.1 C34.7,113.1 21.2,113.6 18.6,113.6 L8,113.6 L8,125.6 C8,137.7 5.3,149.4 0.3,160 L31.5,160 C40.3,160 48.6,158.3 56.3,154.9 C64,151.5 70.7,147 76.5,141.2 C82.2,135.5 86.8,128.7 90.2,121 C93.6,113.3 95.3,105 95.3,96.2 L95.3,0 L34.9,0 Z"/>
            </g>
            <g transform="translate(809.000000, 67.000000)" fill="#FFFFFF" fill-rule="nonzero">
                <path d="M158.3,154.9 C151.4,148.2 145.9,140.3 141.9,131.3 C140.5,128.3 139.4,125.1 138.5,121.9 C135.7,124 131.4,126.8 129.8,127.6 C127.5,128.7 125.1,129.6 122.6,130.1 C120.1,130.7 117.6,131 115.1,131 C112.6,131 110.4,130.6 108.5,129.7 C104.4,127.9 101.1,126 98.7,123.9 C96.3,121.8 94.3,119.8 92.7,118.1 C99.7,113.2 105.6,107.2 110.3,99.9 C115,92.6 118,84.4 119.3,75.3 C120.6,66.6 120.2,58.2 118.1,50.1 C116,42 112.5,34.7 107.7,28 C102.9,21.4 97,15.8 89.8,11.3 C82.7,6.8 74.8,3.8 66.1,2.4 C63.6,2.1 60.4,2 56.5,2 C52.6,2 49.4,2 46.9,2 L0.8,2 L0.8,162 L47.1,162 L47.1,128.5 C49.4,131 51.9,133.8 54.4,136.9 C56.9,140 59.6,143.2 62.6,146.4 C65.6,149.6 69.1,152.9 73,156.2 C77,159.5 81.6,162.7 86.9,165.8 C90.6,167.9 94.9,169.5 99.9,170.7 C104.9,171.9 110.2,172.5 115.7,172.5 C119.8,172.5 124.2,172.3 128.9,171.8 C133.6,171.4 138.2,170.6 142.6,169.5 C147,168.4 151.2,167 155.1,165.2 C158.4,163.7 161.2,161.9 163.6,159.9 C161.8,158.2 160,156.6 158.3,154.9 Z M68.7,76.5 C65.8,79.5 62.2,81 58,81 L47.3,81 L47.3,50.3 L58,50.3 C62.2,50.3 65.8,51.8 68.7,54.7 C71.6,57.6 73.1,61.2 73.1,65.5 C73,69.8 71.6,73.4 68.7,76.5 Z"/>
                <polygon points="489.1 2 489.1 58.5 462 58.5 462 2 415.7 2 415.7 162 462 162 462 104.8 489.1 104.8 489.1 162 535.4 162 535.4 2"/>
                <path d="M398.7,93.3 C396.9,88.6 394.3,84.3 391.1,80.4 C387.9,76.5 384,73.1 379.6,70.1 C375.2,67.2 370.3,64.9 365,63.3 L339.9,55.1 C338.3,54.1 336.9,52.7 335.8,50.9 C334.7,49.1 335,47.4 336.6,45.8 C338.7,44.2 341,43.2 343.8,42.7 C346.5,42.3 349.3,42.2 352.3,42.5 C357.4,43.2 363.1,44.4 369.3,46 C375.5,47.6 380.9,49.4 385.6,51.3 C386.2,41.3 386.6,33.8 386.7,28.9 C386.8,24 386.9,20.3 386.9,17.9 C386.9,15.5 386.9,13.7 386.9,12.5 C386.9,11.3 387,9.5 387.3,7 C379.4,4.2 371.5,2.3 363.8,1.4 C356.1,0.4 348.3,0.1 340.5,0.4 C334.5,0.4 328.1,1.3 321.5,3 C315.5,4.5 310.3,6.6 305.9,9.5 C301.6,12.4 298,15.7 295.1,19.4 C292.2,23.1 290.1,27.2 288.8,31.6 C287.5,36 286.8,40.6 286.8,45.3 C286.8,48 283.5,69.3 311.8,87.8 C321.4,94.1 335.9,99.9 339.5,101.3 C341.2,101.9 342.8,102.7 344.3,103.7 C345.8,104.7 347.1,105.8 348.2,107.2 C349.2,108.6 349.7,110.2 349.7,111.9 C349.4,114.4 348.4,116.1 346.8,117.1 C345.2,118.1 343.2,118.6 340.8,118.8 C337,118.8 325,116 321.7,114.8 C313.6,111.9 294.2,103.3 286.6,100 L286.6,101.8 C286.6,112.1 284.5,122 280.5,131.2 C278.2,136.3 275.5,141 272.3,145.4 C302.7,160.8 326.9,163.8 343.8,162.9 C365.6,161.8 378.1,154.1 387,145.7 C391.7,141.2 395.1,135.6 397.7,129.4 C400.3,123.1 401.5,116.1 401.3,108.3 C401.5,103 400.6,98 398.7,93.3 Z"/>
                <path d="M225.5,99.7 C225.5,103.4 224.1,106.6 221.2,109.3 C218.3,112 215,113.4 211.2,113.4 C207.5,113.4 204.3,112 201.4,109.3 C198.5,106.6 197.1,103.4 197.1,99.7 L197.1,1.5 L150.8,1.5 L150.8,101.9 C150.8,110.1 152.4,117.9 155.7,125.2 C158.9,132.5 163.3,138.8 168.8,144.2 C174.3,149.6 180.7,153.8 188,157 C195.3,160.2 203,161.7 211.3,161.7 C219.5,161.7 227.3,160.1 234.7,157 C242.1,153.8 248.5,149.6 254,144.2 C259.5,138.8 263.9,132.5 267.1,125.2 C270.3,117.9 272,110.2 272,101.9 L272,1.5 L225.7,1.5 L225.7,99.7 L225.5,99.7 Z"/>
            </g>
            <path d="M270.459991,94.1408586 C270.459991,130.03767 270.459991,165.934481 270.459991,201.822007 C270.162863,202.416263 269.763597,202.917667 269.661459,203.521209 C266.46733,221.172486 256.894228,234.03257 241.341419,242.909278 C215.119848,257.86783 189.093267,273.318501 162.871696,288.174915 C145.025428,298.249421 126.575619,298.74154 108.729351,288.769172 C81.2078432,273.411353 53.8906113,257.663554 26.7683699,241.507204 C9.11709261,230.940579 0.147532448,214.988504 0.0453945994,194.347373 C-0.0567432492,163.641022 0.0453945994,132.832533 0.0453945994,102.116896 C0.0453945994,80.5843805 9.51635874,64.4280299 27.9661683,53.6571295 C54.2898775,38.2064586 80.7157245,22.9507781 107.336562,7.89008805 C125.479958,-2.48154622 144.226896,-2.67653665 162.379577,7.59295976 C189.696809,22.9507781 216.81905,38.8007151 243.839154,54.6506522 C256.801376,62.2274235 264.972403,73.5925805 268.667936,88.1518665 C269.16934,90.1481972 269.865735,92.1445279 270.459991,94.1315733 L270.459991,94.1408586 Z M152.509347,49.0794968 C143.929768,50.9736896 136.158006,53.8614052 128.878363,58.3554705 C116.909664,65.830104 110.131425,76.4988665 109.137902,90.5567486 C108.636498,97.8363916 108.942912,105.116035 108.738636,112.48853 C108.636498,116.77832 108.543646,121.160962 107.642975,125.348614 C106.343039,131.031192 103.056058,135.116706 96.6770847,136.212367 C95.4792862,136.407357 93.8822217,138.403688 93.7893691,139.601486 C93.4922408,145.181927 93.5943787,150.864506 93.7893691,156.547084 C93.7893691,157.744882 94.6900392,159.536937 95.6835619,159.834066 C106.250187,164.021718 108.747921,167.615113 108.840774,179.073122 C108.840774,186.352765 108.738636,193.734546 108.840774,201.004904 C109.24004,225.035154 128.78551,245.277019 152.611485,246.474817 C153.707145,243.679954 154.904944,240.792239 156.102742,237.895238 C157.198403,235.007522 158.396201,232.110522 159.389724,229.315659 C148.720961,222.333144 145.127566,215.852033 144.932575,202.991949 C144.830438,197.504361 144.635447,192.026059 144.932575,186.538471 C146.130374,169.490735 140.549933,156.231385 124.495721,148.552476 C124.393583,148.552476 124.393583,148.255348 124.393583,148.15321 C124.393583,148.051072 124.393583,147.753944 124.495721,147.753944 C125.396391,147.25254 126.194923,146.760421 127.086308,146.259017 C138.952869,139.972897 144.635447,130.009814 144.932575,116.741179 C145.034713,110.761472 145.034713,104.77248 144.932575,98.7927733 C144.737585,85.9326897 145.833246,73.6668626 159.491862,67.1857518 C157.198403,60.8067789 154.904944,55.1242004 152.509347,49.0423558 L152.509347,49.0794968 Z" fill="#FFFFFF"/>
        </g>
    </g>
</svg>
